<svg xmlns="http://www.w3.org/2000/svg" viewBox="0 0 32 32">
  <rect width="32" height="32" rx="7" fill="#f0edeb"/>
  <g transform="translate(5.5 4)" fill="#141312">
    <path d="M11.667 22v1.333L10.5 24l-1.166-.667V22l1.166-.666L11.667 22ZM7 14v1.334l-.419.238v3.522l.419.239v1.334l-1.167.666-1.166-.666v-1.334l.414-.237V15.57l-.414-.236V14l1.166-.666L7 14Zm4.667 2.667v.477l3.058 1.775.442-.252 1.166.666v1.334l-1.166.666L14 20.667v-.434l-3.097-1.797-.403.231L9.334 18v-1.333L10.5 16l1.167.667ZM2.333 16.667V18l-1.166.667L0 18v-1.333L1.167 16l1.166.667Zm18.667 0V18l-1.167.667L18.667 18v-1.333L19.833 16l1.167.667Zm0-5.334v1.333l-1.167.667-.412-.236-3.088 1.764v.473L15.167 16 14 15.334V14l1.167-.666.408.233 3.092-1.767v-.467l1.166-.666 1.167.666ZM7 8.667V10l-1.167.667-.413-.236-3.087 1.764v.471l-1.166.667L0 12.666v-1.333l1.167-.666.408.233 3.092-1.766v-.467L5.833 8 7 8.667Zm4.667 2.666v1.333l-1.167.667-1.166-.667v-1.333l1.166-.666 1.167.666Zm4.666-8v1.334l-.419.24v3.52l.419.24V10l-1.166.667L14 10V8.667l.414-.237V4.902L14 4.667V3.333l1.167-.666 1.166.666ZM2.333 6v1.333L1.167 8 0 7.333V6l1.167-.666L2.333 6ZM7 3.333v.47l3.088 1.765.412-.234L11.667 6v1.333L10.5 8l-1.166-.667v-.468L6.242 5.1l-.409.234-1.166-.666V3.333l1.166-.666L7 3.333ZM21 6v1.333L19.833 8l-1.166-.667V6l1.166-.666L21 6ZM11.667.667V2L10.5 2.667 9.334 2V.667L10.5 0l1.167.667Z"/>
  </g>
</svg>
